/vscmnt/brussel_pixiu_data/_data_brussel/112/vsc11236/PredSimResults/SUBJ10mtu3D/worker8.mot
version=1
nRows=4
nColumns=50
inDegrees=yes
endheader
                time	         pelvis_tilt	         pelvis_list	     pelvis_rotation	           pelvis_tx	           pelvis_ty	           pelvis_tz	       hip_flexion_r	     hip_adduction_r	      hip_rotation_r	        knee_angle_r	       ankle_angle_r	         mtp_angle_r	       hip_flexion_l	     hip_adduction_l	      hip_rotation_l	        knee_angle_l	       ankle_angle_l	         mtp_angle_l	    lumbar_extension	      lumbar_bending	     lumbar_rotation	 ercspn_r/activation	 intobl_r/activation	 extobl_r/activation	    abd_r/activation	    add_r/activation	hamstrings_r/activation	bifemsh_r/activation	glut_max_r/activation	iliopsoas_r/activation	rect_fem_r/activation	  vasti_r/activation	gastroc_r/activation	 soleus_r/activation	tib_ant_r/activation	 ercspn_l/activation	 intobl_l/activation	 extobl_l/activation	    abd_l/activation	    add_l/activation	hamstrings_l/activation	bifemsh_l/activation	glut_max_l/activation	iliopsoas_l/activation	rect_fem_l/activation	  vasti_l/activation	gastroc_l/activation	 soleus_l/activation	tib_ant_l/activation	
          0.55720371	         -4.59577624	          1.11561987	         -7.78213608	          0.67421648	          0.82156310	          0.01295607	        -16.41502312	         -1.11672634	          0.45249601	         -4.94437900	          7.86903109	         26.60550929	         31.40323050	         -1.83210376	         -6.57861022	         -6.68070296	          2.23524268	          0.26738473	         -6.82836334	          0.48794456	          6.43027499	          0.06294916	          0.00999999	          0.00999999	          0.05597440	          0.00999999	          0.01760169	          0.22788231	          0.01186132	          0.35297667	          0.00999999	          0.00999999	          0.34015477	          0.24202664	          0.02343889	          0.11603229	          0.18723897	          0.00999999	          0.00999999	          0.10761619	          0.12485571	          0.28022036	          0.02950115	          0.11245061	          0.00999999	          0.00999999	          0.01158479	          0.00999999	          0.29576902	
          0.56834778	         -4.63513922	          1.07591285	         -7.90630036	          0.68982091	          0.82009753	          0.01288616	        -16.57753865	         -1.21851979	          0.17462532	         -6.50075462	          7.16099708	         28.25707300	         31.34684284	         -1.74339214	         -6.34785196	         -8.29822617	          1.94434876	          0.26441931	         -6.64413815	          0.05808078	          6.70230708	          0.09726888	          0.00999999	          0.00999999	          0.04720652	          0.00999999	          0.01484455	          0.19218661	          0.01185733	          0.29768608	          0.00999999	          0.00999999	          0.30846089	          0.23309286	          0.01976740	          0.09785688	          0.15790968	          0.00999999	          0.00999999	          0.14165714	          0.10797657	          0.24315956	          0.06585390	          0.09483624	          0.00999999	          0.00999999	          0.01667102	          0.01185733	          0.32304977	
          0.57949185	         -4.66480246	          1.04761430	         -7.98802753	          0.70573205	          0.81884132	          0.01273669	        -16.62856581	         -1.33693584	         -0.13429357	         -8.28991885	          6.32049316	         29.85988172	         31.12284255	         -1.66135476	         -6.05238895	         -9.79342992	          1.51533558	          0.25535081	         -6.43901006	         -0.39272550	          6.94816375	          0.10841585	          0.00999999	          0.00999999	          0.03981205	          0.00999999	          0.01251929	          0.16208232	          0.00999999	          0.25105625	          0.00999999	          0.00999999	          0.26014329	          0.21858278	          0.01667101	          0.08697380	          0.13317456	          0.00999999	          0.03296107	          0.11946783	          0.09271252	          0.20507082	          0.09949988	          0.07998100	          0.00999999	          0.00999999	          0.01405965	          0.00999999	          0.42113163	
          0.59063593	         -4.68627868	          1.01758281	         -8.02094567	          0.72173551	          0.81792161	          0.01246186	        -16.49459249	         -1.45824855	         -0.47621178	        -10.41030435	          5.35160052	         31.32969885	         30.82688147	         -1.57149713	         -5.83278932	        -11.14313750	          0.96386802	          0.24133359	         -6.23984303	         -0.84093543	          7.16121128	          0.13785481	          0.00999999	          0.00999999	          0.03357585	          0.00999999	          0.01356328	          0.13669360	          0.00999999	          0.21173057	          0.00999999	          0.00999999	          0.21939420	          0.20228292	          0.01405965	          0.10209340	          0.11231398	          0.00999999	          0.08412295	          0.16105746	          0.07818994	          0.17294833	          0.11637916	          0.06745271	          0.00999999	          0.00999999	          0.01185733	          0.00999999	          0.48209749	
